<svg id="FlexSMS" xmlns="http://www.w3.org/2000/svg" width="35.162" height="31.145" viewBox="0 0 35.162 31.145">
  <path id="Caminho_1" data-name="Caminho 1" d="M717.654,517.745s-4.238-2.945-3.873-7.495,1.939-8.15,8.45-10.237a21.03,21.03,0,0,1,6.541-.406s5.515.467,8.612,2.4c4.956,3.087,6.1,6.456,5,10.437a7.442,7.442,0,0,1-2.214,4.172c-1.655,1.848-2.065,1.725-4.737,3.144-1.675.889-4.532,1.159-6.459,1.338a31.58,31.58,0,0,1-5.622,0s-6.581,3.229-7.69,3.229c-.612,0,1.151-1.613,1.992-3.7A5.448,5.448,0,0,0,717.654,517.745Z" transform="translate(-713.759 -499.516)" fill="#fff"/>
  <path id="Caminho_2" data-name="Caminho 2" d="M727.123,522.844c1.848-.053,5.535.782,9.77-1.162a12.652,12.652,0,0,0,6.5-6.337c1.914-3.713.661-6.918.951-8.186s2.62,2.12,3.334,3.995.213,5.891,0,7.14a48.6,48.6,0,0,1-2.3,5.81,7.072,7.072,0,0,0,.606,2.6c.6,1.322,3.222,2.9,2.377,2.958s-7.972-3.233-7.972-3.233-6.527.145-9.979-.7S725.274,522.9,727.123,522.844Z" transform="translate(-713.358 -498.513)" fill="#fff"/>
</svg>
