<svg xmlns="http://www.w3.org/2000/svg" width="48.074" height="35.297" viewBox="0 0 48.074 35.297">
  <path id="FlexBilling" d="M0,39.8V4.5H1.69V39.8Zm2.522-.025V4.5H3.38V39.772Zm2.549,0V4.5H5.9V39.772Zm4.212,0V4.5h.832V39.772Zm3.38,0V4.5h1.663V39.772Zm4.212,0V4.5h.832V39.772Zm1.69,0V4.5H19.4V39.772Zm1.69,0V4.5h.832V39.772Zm3.353,0V4.5H25.3V39.772Zm4.212,0V4.5h1.69V39.772Zm3.38,0V4.5h1.69V39.772Zm3.38,0V4.5h1.69V39.772Zm2.522,0V4.5h1.69V39.772Zm4.239,0V4.5h2.522V39.772Zm3.353,0V4.5h.858V39.772Zm1.69.025V4.5h1.69V39.8Z" transform="translate(0 -4.5)" fill="#fff"/>
</svg>
