<svg xmlns="http://www.w3.org/2000/svg" width="27.201" height="26.612" viewBox="0 0 27.201 26.612">
  <g id="g4flexiconblack" transform="translate(-820.872 -713.788)">
    <path id="Caminho_5" data-name="Caminho 5" d="M865.789,740.708a3.787,3.787,0,0,0-2.218-1.776,9.721,9.721,0,0,0-3.392-.625,7.861,7.861,0,0,0-4.6,1.513,5.8,5.8,0,0,0-1.964,2.053,6.983,6.983,0,0,0-1.339,3.347,17.706,17.706,0,0,0-.4,4.15,7.7,7.7,0,0,0,.63,3.142,7.53,7.53,0,0,0,1.78,2.838,6.717,6.717,0,0,0,1.689,1.4,7.813,7.813,0,0,0,4.61,1.65,10.953,10.953,0,0,0,4.078-.391,7.966,7.966,0,0,0,2.943-1.59,7.765,7.765,0,0,0,2.088-2.785,10.44,10.44,0,0,0,.551-3.777h-4.827l8.749-13.651v19.911" transform="translate(-30 -19)" fill="none" stroke="#000" stroke-width="2"/>
    <path id="Caminho_6" data-name="Caminho 6" d="M867.6,745.931l5.916-9.249V746.4h-6.419Z" transform="translate(-30.043 -16.391)" fill="#84c22c"/>
  </g>
</svg>
