<svg xmlns="http://www.w3.org/2000/svg" width="38" height="38" viewBox="0 0 38 38">
  <path id="voip" d="M19,2.25C8.5,2.25,0,11.962,0,23.964v4.071a2.777,2.777,0,0,0,1.313,2.428l1.067.61c.149,5.1,3.811,9.177,8.307,9.177h1.781a1.921,1.921,0,0,0,1.781-2.036V23.286a1.921,1.921,0,0,0-1.781-2.036H10.688A7.818,7.818,0,0,0,4.75,24.1v-.138c0-8.98,6.393-16.286,14.25-16.286s14.25,7.306,14.25,16.286V24.1a7.818,7.818,0,0,0-5.937-2.852H25.531a1.921,1.921,0,0,0-1.781,2.036V38.214a1.921,1.921,0,0,0,1.781,2.036h1.781c4.5,0,8.158-4.08,8.307-9.177l1.067-.61A2.777,2.777,0,0,0,38,28.036V23.964C38,11.964,29.5,2.25,19,2.25Z" transform="translate(0 -2.25)" fill="#fff"/>
</svg>
