<svg xmlns="http://www.w3.org/2000/svg" width="38.469" height="38.395" viewBox="0 0 38.469 38.395">
  <path id="FlexUC" d="M717.651,465.6c-.144-2.343,5.627-4.482,5-5.182a34.986,34.986,0,0,1-3.093-4.3,49.836,49.836,0,0,1-2.665-5.255c-.532-.579-5.238.822-7.359,4.341s-2.24,7.632.587,13.436,8.165,11.888,15.836,16.768,13.406,1.9,15.142,1.585,4.858-4.962,4.325-5.177c0,0-2.046-1.441-4.325-2.945s-4.6-3.392-4.6-3.392c-1.066-.967-3.984,4.339-5.9,4.241-.925-.047-4.694-2.345-7.948-5.833C719.919,470.974,717.725,466.815,717.651,465.6Z" transform="translate(-707.515 -450.203)" fill="#fff" stroke="#fff" stroke-width="1"/>
</svg>
