<svg xmlns="http://www.w3.org/2000/svg" width="27.22" height="26.655" viewBox="0 0 27.22 26.655">
  <g id="g4flexicon" transform="translate(-820.872 -714.086)">
    <path id="Caminho_5" data-name="Caminho 5" d="M865.807,741.006a3.787,3.787,0,0,0-2.218-1.776,9.721,9.721,0,0,0-3.392-.625c-.074,0-3.482.3-4.618,1.215a5.8,5.8,0,0,0-1.964,2.053,6.983,6.983,0,0,0-1.339,3.347,17.706,17.706,0,0,0-.4,4.15,7.7,7.7,0,0,0,.63,3.142,7.53,7.53,0,0,0,1.78,2.838,6.717,6.717,0,0,0,1.689,1.4,11.41,11.41,0,0,0,4.629,1.948,9.088,9.088,0,0,0,4.078-.391,7.966,7.966,0,0,0,2.943-1.59,7.765,7.765,0,0,0,2.088-2.785,10.44,10.44,0,0,0,.551-3.777h-4.827l8.749-13.651V756.41" transform="translate(-30 -19)" fill="none" stroke="#fff" stroke-width="2"/>
    <path id="Caminho_6" data-name="Caminho 6" d="M867.6,745.931l5.916-9.249V746.4h-6.419Z" transform="translate(-30.043 -16.391)" fill="#84c22c"/>
  </g>
</svg>
