<svg xmlns="http://www.w3.org/2000/svg" width="45" height="31.503" viewBox="0 0 45 31.503">
  <path id="salesforce" d="M17.5,17.272H15.647a.99.99,0,0,1,.959-.993c.475,0,.842.269.894.993Zm9.609-.976c-.033,0-.992-.124-.992,1.406s.958,1.406.992,1.406c.914,0,.992-.952.992-1.406C28.1,16.172,27.141,16.3,27.109,16.3Zm-17.1,1.671a.607.607,0,0,0-.231.513.526.526,0,0,0,.231.5c.33.26,1.06.149,1.472.067V17.85a2.235,2.235,0,0,0-1.472.116ZM45,16.313a9.725,9.725,0,0,1-11.627,9.593,7.121,7.121,0,0,1-9.3,2.927,8.092,8.092,0,0,1-15.034-.364C.626,30.149-3.529,18.74,3.752,14.457A8.743,8.743,0,0,1,18.719,5.674,7.9,7.9,0,0,1,31.372,7.345,9.726,9.726,0,0,1,45,16.313ZM8.469,18.548c0-.827-.822-1.067-1.256-1.207-.371-.148-.943-.247-.943-.629,0-.665,1.2-.468,1.77-.149,0,0,.082.05.115-.033.017-.049.166-.463.182-.513a.079.079,0,0,0-.049-.1c-.867-.536-2.862-.6-2.862.893,0,.876.808,1.086,1.257,1.207.332.111.926.211.926.612,0,.281-.248.5-.645.5a2.233,2.233,0,0,1-1.336-.446c-.033-.016-.1-.05-.116.05l-.169.525c-.033.066.016.083.016.1a2.819,2.819,0,0,0,1.6.463c.926,0,1.5-.5,1.5-1.273Zm2.25-2.994a2.971,2.971,0,0,0-1.5.364.07.07,0,0,0-.017.1l.182.5a.07.07,0,0,0,.083.049,2.778,2.778,0,0,1,1.19-.281,1.034,1.034,0,0,1,.645.166c.253.2.215.583.215.744a3.07,3.07,0,0,0-2.068.264,1.19,1.19,0,0,0-.516,1.022,1.148,1.148,0,0,0,.463,1.009,4.014,4.014,0,0,0,2.679.1c.111-.022.248-.046.248-.132V17.073c0-.324.023-1.522-1.6-1.522Zm3.273-1.475A.078.078,0,0,0,13.909,14h-.69a.078.078,0,0,0-.082.083v5.555a.078.078,0,0,0,.082.083h.695A.078.078,0,0,0,14,19.634Zm3.92,2.034a1.515,1.515,0,0,0-1.241-.529,1.775,1.775,0,0,0-1.455.629,2.42,2.42,0,0,0-.463,1.505,2.173,2.173,0,0,0,.5,1.489,2.037,2.037,0,0,0,1.6.579,2.47,2.47,0,0,0,1.306-.264c.033-.017.05-.05.017-.132l-.165-.48a.089.089,0,0,0-.1-.049,2.527,2.527,0,0,1-1.075.2,1.079,1.079,0,0,1-1.191-1.174h2.614a.086.086,0,0,0,.082-.066,2.533,2.533,0,0,0-.428-1.7Zm2.58,3.7c.926,0,1.505-.5,1.505-1.273,0-.827-.823-1.067-1.257-1.207-.291-.117-.943-.238-.943-.629,0-.264.231-.446.6-.446a2.68,2.68,0,0,1,1.174.3s.083.05.116-.033c.016-.049.165-.463.181-.513a.079.079,0,0,0-.049-.1,2.685,2.685,0,0,0-1.422-.347,1.3,1.3,0,0,0-1.439,1.24c0,.876.807,1.086,1.256,1.207.43.141.926.229.926.612,0,.281-.247.5-.645.5a2.236,2.236,0,0,1-1.336-.446.07.07,0,0,0-.116.05l-.165.529c-.033.066.016.083.016.1a2.817,2.817,0,0,0,1.6.463Zm4.616-4.068c0-.05-.017-.083-.083-.083H24.2a1.8,1.8,0,0,1,.314-.877c.292-.292.827-.115.844-.115.082.033.1,0,.115-.033l.2-.546c.049-.066,0-.082-.017-.1a1.771,1.771,0,0,0-1.72.3,2.536,2.536,0,0,0-.562,1.373h-.6a.09.09,0,0,0-.082.083l-.1.546c0,.049.017.082.083.082h.579c-.6,3.368-.615,3.53-.728,3.9a.8.8,0,0,1-.413.546,1.018,1.018,0,0,1-.678-.017s-.066-.033-.1.05c-.017.05-.182.48-.2.529s0,.1.033.1a2.037,2.037,0,0,0,1.257,0,1.425,1.425,0,0,0,.811-.91,30.365,30.365,0,0,0,.827-4.2h.86a.091.091,0,0,0,.083-.083Zm3.754,1.125a1.866,1.866,0,0,0-3.539,0,3.028,3.028,0,0,0,0,1.654,1.866,1.866,0,0,0,3.539,0A3,3,0,0,0,28.862,16.875ZM32.054,15.7a1.519,1.519,0,0,0-1.555.38v-.314a.078.078,0,0,0-.083-.082h-.661a.078.078,0,0,0-.083.082v3.887a.079.079,0,0,0,.083.083h.678a.079.079,0,0,0,.083-.083V17.7a1.481,1.481,0,0,1,.314-1.058,1.033,1.033,0,0,1,.943-.215.11.11,0,0,0,.1-.066,5.2,5.2,0,0,0,.215-.563.082.082,0,0,0-.033-.1Zm3.291,3.8-.149-.513c-.033-.083-.1-.05-.1-.05a2.294,2.294,0,0,1-.794.133c-.326,0-1.207-.079-1.207-1.389,0-.438.13-1.389,1.158-1.389a2.45,2.45,0,0,1,.81.116s.066.033.083-.05c.066-.182.115-.314.182-.529.016-.066-.033-.082-.05-.082a2.833,2.833,0,0,0-1.952,0,1.94,1.94,0,0,0-1.141,1.935A1.933,1.933,0,0,0,34.221,19.8a3.125,3.125,0,0,0,1.091-.2.091.091,0,0,0,.033-.1Zm3.788-2.779a1.543,1.543,0,0,0-1.571-1.141,1.737,1.737,0,0,0-1.8,1.307,2.713,2.713,0,0,0-.116.827,1.885,1.885,0,0,0,2.1,2.067,2.472,2.472,0,0,0,1.306-.264c.033-.017.05-.05.017-.132l-.166-.48a.089.089,0,0,0-.1-.049,2.527,2.527,0,0,1-1.075.2,1.078,1.078,0,0,1-1.19-1.174h2.613a.088.088,0,0,0,.083-.066,3.561,3.561,0,0,0-.1-1.093ZM37.5,16.279a.989.989,0,0,0-.959.993h1.854c-.062-.838-.536-.994-.9-.994Z" transform="translate(0 -2.25)" fill="#fff"/>
</svg>
